<svg xmlns="http://www.w3.org/2000/svg" viewBox="0 0 100 100" width="100" height="100">
  <defs>
    <radialGradient id="bg" cx="38%" cy="35%" r="62%">
      <stop offset="0%"   stop-color="#FFE066"/>
      <stop offset="40%"  stop-color="#FF8C00"/>
      <stop offset="100%" stop-color="#B84000"/>
    </radialGradient>
    <radialGradient id="shine" cx="33%" cy="28%" r="38%">
      <stop offset="0%"   stop-color="rgba(255,255,230,0.8)"/>
      <stop offset="100%" stop-color="rgba(255,255,230,0)"/>
    </radialGradient>
  </defs>
  <circle cx="50" cy="50" r="47" fill="url(#bg)"/>
  <circle cx="50" cy="50" r="47" fill="url(#shine)"/>
  <polygon points="35.00,26.00 36.41,30.06 40.71,30.15 37.28,32.74 38.53,36.85 35.00,34.40 31.47,36.85 32.72,32.74 29.29,30.15 33.59,30.06" fill="#CC1100" opacity="0.92"/>
  <polygon points="65.00,26.00 66.41,30.06 70.71,30.15 67.28,32.74 68.53,36.85 65.00,34.40 61.47,36.85 62.72,32.74 59.29,30.15 63.59,30.06" fill="#CC1100" opacity="0.92"/>
  <polygon points="28.00,46.00 29.41,50.06 33.71,50.15 30.28,52.74 31.53,56.85 28.00,54.40 24.47,56.85 25.72,52.74 22.29,50.15 26.59,50.06" fill="#CC1100" opacity="0.92"/>
  <polygon points="72.00,46.00 73.41,50.06 77.71,50.15 74.28,52.74 75.53,56.85 72.00,54.40 68.47,56.85 69.72,52.74 66.29,50.15 70.59,50.06" fill="#CC1100" opacity="0.92"/>
  <polygon points="35.00,64.00 36.41,68.06 40.71,68.15 37.28,70.74 38.53,74.85 35.00,72.40 31.47,74.85 32.72,70.74 29.29,68.15 33.59,68.06" fill="#CC1100" opacity="0.92"/>
  <polygon points="65.00,64.00 66.41,68.06 70.71,68.15 67.28,70.74 68.53,74.85 65.00,72.40 61.47,74.85 62.72,70.74 59.29,68.15 63.59,68.06" fill="#CC1100" opacity="0.92"/>
  <circle cx="50" cy="50" r="47" fill="none" stroke="rgba(0,0,0,0.18)" stroke-width="1.5"/>
</svg>