<svg xmlns="http://www.w3.org/2000/svg" viewBox="0 0 100 100" width="100" height="100">
  <defs>
    <radialGradient id="bg" cx="38%" cy="35%" r="62%">
      <stop offset="0%"   stop-color="#FFE066"/>
      <stop offset="40%"  stop-color="#FF8C00"/>
      <stop offset="100%" stop-color="#B84000"/>
    </radialGradient>
    <radialGradient id="shine" cx="33%" cy="28%" r="38%">
      <stop offset="0%"   stop-color="rgba(255,255,230,0.8)"/>
      <stop offset="100%" stop-color="rgba(255,255,230,0)"/>
    </radialGradient>
  </defs>
  <circle cx="50" cy="50" r="47" fill="url(#bg)"/>
  <circle cx="50" cy="50" r="47" fill="url(#shine)"/>
  <polygon points="35.00,31.00 36.41,35.06 40.71,35.15 37.28,37.74 38.53,41.85 35.00,39.40 31.47,41.85 32.72,37.74 29.29,35.15 33.59,35.06" fill="#CC1100" opacity="0.92"/>
  <polygon points="65.00,31.00 66.41,35.06 70.71,35.15 67.28,37.74 68.53,41.85 65.00,39.40 61.47,41.85 62.72,37.74 59.29,35.15 63.59,35.06" fill="#CC1100" opacity="0.92"/>
  <polygon points="35.00,57.00 36.41,61.06 40.71,61.15 37.28,63.74 38.53,67.85 35.00,65.40 31.47,67.85 32.72,63.74 29.29,61.15 33.59,61.06" fill="#CC1100" opacity="0.92"/>
  <polygon points="65.00,57.00 66.41,61.06 70.71,61.15 67.28,63.74 68.53,67.85 65.00,65.40 61.47,67.85 62.72,63.74 59.29,61.15 63.59,61.06" fill="#CC1100" opacity="0.92"/>
  <circle cx="50" cy="50" r="47" fill="none" stroke="rgba(0,0,0,0.18)" stroke-width="1.5"/>
</svg>