<svg xmlns="http://www.w3.org/2000/svg" viewBox="0 0 100 100" width="100" height="100">
  <defs>
    <radialGradient id="bg" cx="38%" cy="35%" r="62%">
      <stop offset="0%"   stop-color="#FFE066"/>
      <stop offset="40%"  stop-color="#FF8C00"/>
      <stop offset="100%" stop-color="#B84000"/>
    </radialGradient>
    <radialGradient id="shine" cx="33%" cy="28%" r="38%">
      <stop offset="0%"   stop-color="rgba(255,255,230,0.8)"/>
      <stop offset="100%" stop-color="rgba(255,255,230,0)"/>
    </radialGradient>
  </defs>
  <circle cx="50" cy="50" r="47" fill="url(#bg)"/>
  <circle cx="50" cy="50" r="47" fill="url(#shine)"/>
  <polygon points="50.00,22.00 51.41,26.06 55.71,26.15 52.28,28.74 53.53,32.85 50.00,30.40 46.47,32.85 47.72,28.74 44.29,26.15 48.59,26.06" fill="#CC1100" opacity="0.92"/>
  <polygon points="33.00,34.00 34.41,38.06 38.71,38.15 35.28,40.74 36.53,44.85 33.00,42.40 29.47,44.85 30.72,40.74 27.29,38.15 31.59,38.06" fill="#CC1100" opacity="0.92"/>
  <polygon points="67.00,34.00 68.41,38.06 72.71,38.15 69.28,40.74 70.53,44.85 67.00,42.40 63.47,44.85 64.72,40.74 61.29,38.15 65.59,38.06" fill="#CC1100" opacity="0.92"/>
  <polygon points="28.00,51.00 29.41,55.06 33.71,55.15 30.28,57.74 31.53,61.85 28.00,59.40 24.47,61.85 25.72,57.74 22.29,55.15 26.59,55.06" fill="#CC1100" opacity="0.92"/>
  <polygon points="72.00,51.00 73.41,55.06 77.71,55.15 74.28,57.74 75.53,61.85 72.00,59.40 68.47,61.85 69.72,57.74 66.29,55.15 70.59,55.06" fill="#CC1100" opacity="0.92"/>
  <polygon points="38.00,66.00 39.41,70.06 43.71,70.15 40.28,72.74 41.53,76.85 38.00,74.40 34.47,76.85 35.72,72.74 32.29,70.15 36.59,70.06" fill="#CC1100" opacity="0.92"/>
  <polygon points="62.00,66.00 63.41,70.06 67.71,70.15 64.28,72.74 65.53,76.85 62.00,74.40 58.47,76.85 59.72,72.74 56.29,70.15 60.59,70.06" fill="#CC1100" opacity="0.92"/>
  <circle cx="50" cy="50" r="47" fill="none" stroke="rgba(0,0,0,0.18)" stroke-width="1.5"/>
</svg>