<svg xmlns="http://www.w3.org/2000/svg" viewBox="0 0 100 100" width="100" height="100">
  <defs>
    <radialGradient id="bg" cx="38%" cy="35%" r="62%">
      <stop offset="0%"   stop-color="#FFE066"/>
      <stop offset="40%"  stop-color="#FF8C00"/>
      <stop offset="100%" stop-color="#B84000"/>
    </radialGradient>
    <radialGradient id="shine" cx="33%" cy="28%" r="38%">
      <stop offset="0%"   stop-color="rgba(255,255,230,0.8)"/>
      <stop offset="100%" stop-color="rgba(255,255,230,0)"/>
    </radialGradient>
  </defs>
  <circle cx="50" cy="50" r="47" fill="url(#bg)"/>
  <circle cx="50" cy="50" r="47" fill="url(#shine)"/>
  <polygon points="50.00,24.00 51.41,28.06 55.71,28.15 52.28,30.74 53.53,34.85 50.00,32.40 46.47,34.85 47.72,30.74 44.29,28.15 48.59,28.06" fill="#CC1100" opacity="0.92"/>
  <polygon points="33.00,41.00 34.41,45.06 38.71,45.15 35.28,47.74 36.53,51.85 33.00,49.40 29.47,51.85 30.72,47.74 27.29,45.15 31.59,45.06" fill="#CC1100" opacity="0.92"/>
  <polygon points="67.00,41.00 68.41,45.06 72.71,45.15 69.28,47.74 70.53,51.85 67.00,49.40 63.47,51.85 64.72,47.74 61.29,45.15 65.59,45.06" fill="#CC1100" opacity="0.92"/>
  <polygon points="40.00,62.00 41.41,66.06 45.71,66.15 42.28,68.74 43.53,72.85 40.00,70.40 36.47,72.85 37.72,68.74 34.29,66.15 38.59,66.06" fill="#CC1100" opacity="0.92"/>
  <polygon points="60.00,62.00 61.41,66.06 65.71,66.15 62.28,68.74 63.53,72.85 60.00,70.40 56.47,72.85 57.72,68.74 54.29,66.15 58.59,66.06" fill="#CC1100" opacity="0.92"/>
  <circle cx="50" cy="50" r="47" fill="none" stroke="rgba(0,0,0,0.18)" stroke-width="1.5"/>
</svg>